<svg width="79" height="74" viewBox="0 0 79 74" fill="none" xmlns="http://www.w3.org/2000/svg">
<path d="M51.687 20L59.2183 22.6981C61.8179 23.6294 63.1704 26.4918 62.239 29.0915L55.9247 46.717C54.9933 49.3166 52.1309 50.669 49.5313 49.7377L42 47.0396L51.687 20Z" fill="#9F0101"/>
<path d="M51.687 20L59.2183 22.6981C61.8179 23.6294 63.1704 26.4918 62.239 29.0915L55.9247 46.717C54.9933 49.3166 52.1309 50.669 49.5313 49.7377L42 47.0396L51.687 20Z" fill="#9F0101"/>
<path d="M51.687 20L59.2183 22.6981C61.8179 23.6294 63.1704 26.4918 62.239 29.0915L55.9247 46.717C54.9933 49.3166 52.1309 50.669 49.5313 49.7377L42 47.0396L51.687 20Z" fill="#9F0101"/>
<path d="M51.687 20L59.2183 22.6981C61.8179 23.6294 63.1704 26.4918 62.239 29.0915L55.9247 46.717C54.9933 49.3166 52.1309 50.669 49.5313 49.7377L42 47.0396L51.687 20Z" fill="#9F0101"/>
<path d="M51.687 20L59.2183 22.6981C61.8179 23.6294 63.1704 26.4918 62.239 29.0915L55.9247 46.717C54.9933 49.3166 52.1309 50.669 49.5313 49.7377L42 47.0396L51.687 20Z" fill="#9F0101"/>
<path d="M67.5511 22L75.0824 24.6981C77.6821 25.6294 79.0345 28.4918 78.1032 31.0915L72.9246 45.5465C71.9933 48.1461 69.1309 49.4985 66.5313 48.5672L59 45.8691L67.5511 22Z" fill="#9F0101"/>
<path d="M67.5511 22L75.0824 24.6981C77.6821 25.6294 79.0345 28.4918 78.1032 31.0915L72.9246 45.5465C71.9933 48.1461 69.1309 49.4985 66.5313 48.5672L59 45.8691L67.5511 22Z" fill="#9F0101"/>
<path d="M67.5511 22L75.0824 24.6981C77.6821 25.6294 79.0345 28.4918 78.1032 31.0915L72.9246 45.5465C71.9933 48.1461 69.1309 49.4985 66.5313 48.5672L59 45.8691L67.5511 22Z" fill="#9F0101"/>
<path d="M67.5511 22L75.0824 24.6981C77.6821 25.6294 79.0345 28.4918 78.1032 31.0915L72.9246 45.5465C71.9933 48.1461 69.1309 49.4985 66.5313 48.5672L59 45.8691L67.5511 22Z" fill="#9F0101"/>
<path d="M67.5511 22L75.0824 24.6981C77.6821 25.6294 79.0345 28.4918 78.1032 31.0915L72.9246 45.5465C71.9933 48.1461 69.1309 49.4985 66.5313 48.5672L59 45.8691L67.5511 22Z" fill="#9F0101"/>
<path d="M31.026 25.7219L38.5573 28.42C41.1569 29.3513 42.5094 32.2138 41.578 34.8134L36.9247 47.8025C35.9933 50.4021 33.1309 51.7546 30.5313 50.8233L23 48.1252L31.026 25.7219Z" fill="#9F0101"/>
<path d="M31.026 25.7219L38.5573 28.42C41.1569 29.3513 42.5094 32.2138 41.578 34.8134L36.9247 47.8025C35.9933 50.4021 33.1309 51.7546 30.5313 50.8233L23 48.1252L31.026 25.7219Z" fill="#9F0101"/>
<path d="M31.026 25.7219L38.5573 28.42C41.1569 29.3513 42.5094 32.2138 41.578 34.8134L36.9247 47.8025C35.9933 50.4021 33.1309 51.7546 30.5313 50.8233L23 48.1252L31.026 25.7219Z" fill="#9F0101"/>
<path d="M31.026 25.7219L38.5573 28.42C41.1569 29.3513 42.5094 32.2138 41.578 34.8134L36.9247 47.8025C35.9933 50.4021 33.1309 51.7546 30.5313 50.8233L23 48.1252L31.026 25.7219Z" fill="#9F0101"/>
<path d="M31.026 25.7219L38.5573 28.42C41.1569 29.3513 42.5094 32.2138 41.578 34.8134L36.9247 47.8025C35.9933 50.4021 33.1309 51.7546 30.5313 50.8233L23 48.1252L31.026 25.7219Z" fill="#9F0101"/>
<path d="M4.41168 4.06648L14.8405 7.7137L7.19925 14.7572L4.41168 4.06648Z" fill="#9F0101"/>
<rect x="7.51294" y="14.8081" width="10" height="11.2018" transform="rotate(-42.6691 7.51294 14.8081)" fill="#9F0101"/>
<path d="M34.7993 48.1365C31.8183 49.2504 28.577 49.5142 25.3888 48.9023C22.2006 48.2904 19.1732 46.8236 16.5993 44.6436C14.0254 42.4636 11.9919 39.6441 10.6954 36.4577C9.39891 33.2712 8.88327 29.8256 9.1983 26.4537C9.51334 23.0818 10.6484 19.8978 12.4938 17.2093C14.3392 14.5209 16.8325 12.4189 19.7327 11.1065C22.6329 9.7941 25.8421 9.31572 29.0499 9.71759C32.2577 10.1194 35.3558 11.388 38.0447 13.4005L31.5959 15C30.1374 13.9083 27.24 17.4273 25.5 17.2093C23.76 16.9913 24.5732 18.2881 23 19C21.4268 19.7119 20.4978 21.3299 19.4968 22.7882C18.4958 24.2465 17.8801 25.9736 17.7092 27.8026C17.5383 29.6316 17.818 31.5007 18.5213 33.2291C19.2245 34.9575 20.3275 36.4869 21.7237 37.6694C23.1199 38.8519 24.7621 39.6476 26.4915 39.9795C28.2209 40.3114 29.979 40.1683 31.596 39.5641L34.7993 48.1365Z" fill="#9F0101"/>
<path d="M30.6548 28.7557L38.5253 34.4291L37.3911 35.7381L30.6548 28.7557Z" fill="white"/>
<path d="M35.6875 53.5938C36.3854 53.6771 36.9896 53.7396 37.5 53.7812C38.0104 53.8125 38.4323 53.8385 38.7656 53.8594C39.151 53.8802 39.474 53.8854 39.7344 53.875C40.0052 53.8646 40.375 53.8385 40.8438 53.7969C41.2396 53.7656 41.7604 53.724 42.4062 53.6719C43.0521 53.6094 43.8594 53.526 44.8281 53.4219C44.8385 53.6615 44.8438 53.8958 44.8438 54.125C44.8542 54.3438 44.8646 54.5365 44.875 54.7031C44.8854 54.901 44.8906 55.0833 44.8906 55.25C44.8906 55.4271 44.8802 55.651 44.8594 55.9219C44.8385 56.151 44.8021 56.4427 44.75 56.7969C44.7083 57.1406 44.6406 57.5521 44.5469 58.0312C44.401 57.4688 44.2604 57.0156 44.125 56.6719C43.9896 56.3177 43.8646 56.0365 43.75 55.8281C43.625 55.5885 43.5 55.4062 43.375 55.2812C43.2396 55.1875 43.0781 55.1094 42.8906 55.0469C42.724 54.9948 42.5104 54.9531 42.25 54.9219C42 54.8906 41.7031 54.8958 41.3594 54.9375C41.3073 56.3125 41.2708 57.4271 41.25 58.2812C41.2292 59.1354 41.2135 59.8021 41.2031 60.2812C41.1927 60.8542 41.1875 61.2656 41.1875 61.5156C41.1979 61.8698 41.2552 62.2188 41.3594 62.5625C41.4427 62.8542 41.5781 63.1562 41.7656 63.4688C41.9531 63.7812 42.224 64.0573 42.5781 64.2969H40.6719C40.4948 64.2969 40.276 64.3073 40.0156 64.3281C39.7969 64.349 39.5156 64.3698 39.1719 64.3906C38.8385 64.4115 38.4479 64.4479 38 64.5C38.1562 64.2292 38.2812 63.9844 38.375 63.7656C38.4688 63.5469 38.5417 63.3594 38.5938 63.2031C38.6562 63.0156 38.7031 62.849 38.7344 62.7031C38.7448 62.4948 38.7708 62.0729 38.8125 61.4375C38.8229 61.1771 38.8333 60.8542 38.8438 60.4688C38.8646 60.0833 38.8854 59.625 38.9062 59.0938C38.9375 58.5625 38.9635 57.9531 38.9844 57.2656C39.0156 56.5677 39.0469 55.7812 39.0781 54.9062C38.8906 54.8542 38.7135 54.8594 38.5469 54.9219C38.3802 54.974 38.2344 55.0417 38.1094 55.125C37.9635 55.2292 37.8229 55.3542 37.6875 55.5C37.5521 55.6771 37.401 55.9062 37.2344 56.1875C37.0885 56.4271 36.9219 56.7448 36.7344 57.1406C36.5469 57.526 36.3333 58.0052 36.0938 58.5781C36.0417 57.974 36.0052 57.4792 35.9844 57.0938C35.9635 56.6979 35.9479 56.3906 35.9375 56.1719C35.9271 55.9115 35.9219 55.7188 35.9219 55.5938C35.9219 55.4792 35.9115 55.3281 35.8906 55.1406C35.8698 54.9844 35.8438 54.7812 35.8125 54.5312C35.7812 54.2708 35.7396 53.9583 35.6875 53.5938ZM48.0781 62.4844C48.3698 62.4844 48.6406 62.4531 48.8906 62.3906C49.099 62.3385 49.2969 62.2552 49.4844 62.1406C49.6823 62.0156 49.8125 61.8333 49.875 61.5938C50.0833 61.6354 50.2604 61.6719 50.4062 61.7031C50.5521 61.724 50.6771 61.7448 50.7812 61.7656C50.8958 61.7969 50.9948 61.8177 51.0781 61.8281C51.1615 61.849 51.2604 61.8698 51.375 61.8906C51.4792 61.9115 51.6042 61.9375 51.75 61.9688C51.9062 61.9896 52.0885 62.0208 52.2969 62.0625C52.1406 62.0417 51.9792 62.0573 51.8125 62.1094C51.6562 62.1615 51.5052 62.2188 51.3594 62.2812C51.1927 62.3542 51.0365 62.4427 50.8906 62.5469C50.7969 62.6094 50.6875 62.7031 50.5625 62.8281C50.4479 62.9531 50.2812 63.0729 50.0625 63.1875C49.8438 63.3021 49.5521 63.401 49.1875 63.4844C48.8333 63.5573 48.375 63.5833 47.8125 63.5625C47.1354 63.5417 46.5677 63.4219 46.1094 63.2031C45.651 62.974 45.2812 62.6979 45 62.375C44.7188 62.0417 44.5156 61.6823 44.3906 61.2969C44.2656 60.9115 44.1979 60.5521 44.1875 60.2188C44.1771 59.8854 44.276 59.5365 44.4844 59.1719C44.6927 58.8073 44.9844 58.474 45.3594 58.1719C45.7448 57.8698 46.2083 57.625 46.75 57.4375C47.2917 57.2396 47.8854 57.1406 48.5312 57.1406C48.9062 57.1406 49.25 57.1875 49.5625 57.2812C49.8854 57.3646 50.1771 57.4792 50.4375 57.625C50.7083 57.7708 50.9427 57.9375 51.1406 58.125C51.3385 58.3021 51.5052 58.4844 51.6406 58.6719C51.776 58.8698 51.8906 59.0781 51.9844 59.2969C52.0677 59.4844 52.1354 59.6979 52.1875 59.9375C52.2396 60.1771 52.2552 60.4219 52.2344 60.6719C51.4427 60.6927 50.8021 60.7083 50.3125 60.7188C49.8333 60.7292 49.4583 60.7344 49.1875 60.7344H48.4844H47.9531C47.7656 60.7344 47.5208 60.7396 47.2188 60.75C46.9167 60.7604 46.5469 60.776 46.1094 60.7969C46.1615 61.2135 46.2917 61.5365 46.5 61.7656C46.7188 61.9844 46.9479 62.151 47.1875 62.2656C47.4583 62.3906 47.7552 62.4635 48.0781 62.4844ZM46.6719 59.6719C47.0052 59.6927 47.2812 59.7083 47.5 59.7188C47.7292 59.7292 47.9167 59.7396 48.0625 59.75C48.2188 59.7604 48.3438 59.7656 48.4375 59.7656H48.8281C49.0885 59.7656 49.5729 59.75 50.2812 59.7188C50.25 59.2604 50.151 58.9115 49.9844 58.6719C49.8281 58.4323 49.6615 58.2552 49.4844 58.1406C49.276 58.0156 49.0469 57.9427 48.7969 57.9219C48.1198 57.9323 47.6146 58.0729 47.2812 58.3438C46.9583 58.6146 46.7552 59.0573 46.6719 59.6719ZM52.7031 53.7344C52.8177 53.7865 52.9531 53.8229 53.1094 53.8438C53.276 53.8646 53.4323 53.875 53.5781 53.875C53.7552 53.875 53.9375 53.8698 54.125 53.8594C54.3125 53.849 54.5417 53.8281 54.8125 53.7969C55.0312 53.776 55.3021 53.75 55.625 53.7188C55.9479 53.6875 56.3073 53.6458 56.7031 53.5938C56.5573 53.6667 56.4323 53.7448 56.3281 53.8281C56.224 53.9115 56.1354 53.9948 56.0625 54.0781C55.9792 54.1719 55.9115 54.2656 55.8594 54.3594C55.7865 54.4844 55.6875 54.7031 55.5625 55.0156C55.4479 55.3177 55.3281 55.6562 55.2031 56.0312C55.0885 56.4062 54.9844 56.7865 54.8906 57.1719C54.8073 57.5573 54.7604 57.8854 54.75 58.1562C54.7396 58.3854 54.7292 58.6458 54.7188 58.9375C54.7083 59.1875 54.6979 59.4948 54.6875 59.8594C54.6771 60.224 54.6667 60.6406 54.6562 61.1094C55.4062 60.5677 55.9844 60.1354 56.3906 59.8125C56.7969 59.4792 57.0938 59.224 57.2812 59.0469C57.5 58.849 57.6302 58.7083 57.6719 58.625C57.6615 58.5625 57.6354 58.4948 57.5938 58.4219C57.5417 58.3594 57.4688 58.2865 57.375 58.2031C57.2812 58.1198 57.1406 58.026 56.9531 57.9219C57.224 57.9531 57.4583 57.974 57.6562 57.9844C57.8646 57.9948 58.0417 58.0052 58.1875 58.0156C58.3542 58.026 58.5 58.026 58.625 58.0156C58.7604 58.0156 58.9271 58.0104 59.125 58C59.4688 57.9896 60 57.974 60.7188 57.9531C60.0208 58.3177 59.4688 58.6302 59.0625 58.8906C58.8333 59.0365 58.6302 59.1719 58.4531 59.2969C58.276 59.4323 58.0938 59.5729 57.9062 59.7188C57.7396 59.8438 57.5469 59.9896 57.3281 60.1562C57.1198 60.3229 56.9115 60.5 56.7031 60.6875C57.0677 61.2812 57.3854 61.7708 57.6562 62.1562C57.9375 62.5417 58.1719 62.8542 58.3594 63.0938C58.5781 63.375 58.7708 63.599 58.9375 63.7656C59.1042 63.9219 59.3229 64.099 59.5938 64.2969C59.8229 64.474 60.1198 64.6823 60.4844 64.9219C60.8594 65.151 61.3125 65.4167 61.8438 65.7188C61.5729 65.6667 61.3125 65.6302 61.0625 65.6094C60.8125 65.599 60.599 65.599 60.4219 65.6094C60.2031 65.6198 60.0052 65.6406 59.8281 65.6719C59.6406 65.7135 59.4323 65.7656 59.2031 65.8281C59.0052 65.8802 58.7708 65.9479 58.5 66.0312C58.2396 66.125 57.9531 66.2448 57.6406 66.3906C57.8385 66.2448 57.9844 66.1042 58.0781 65.9688C58.1823 65.8438 58.2552 65.7396 58.2969 65.6562C58.3385 65.5521 58.3542 65.4635 58.3438 65.3906C58.2917 65.2865 58.1719 65.0729 57.9844 64.75C57.8073 64.4792 57.5469 64.0833 57.2031 63.5625C56.8594 63.0417 56.3698 62.3333 55.7344 61.4375C55.7031 61.4479 55.651 61.4792 55.5781 61.5312C55.5156 61.5833 55.4219 61.6562 55.2969 61.75C55.1719 61.8333 55.0052 61.9583 54.7969 62.125L55.2188 64.8594C55.125 64.901 55.0208 64.9375 54.9062 64.9688C54.8021 65 54.7031 65.026 54.6094 65.0469C54.4948 65.0781 54.3802 65.099 54.2656 65.1094C54.151 65.1198 54.0156 65.1406 53.8594 65.1719C53.724 65.1927 53.5625 65.2188 53.375 65.25C53.1875 65.2917 52.974 65.3385 52.7344 65.3906C52.8698 65.2969 52.9792 65.1875 53.0625 65.0625C53.1458 64.9479 53.2135 64.8385 53.2656 64.7344C53.3177 64.6198 53.3646 64.5 53.4062 64.375C53.4271 64.2708 53.4479 64 53.4688 63.5625C53.5 63.125 53.526 62.6042 53.5469 62C53.5677 61.3854 53.5833 60.7292 53.5938 60.0312C53.6146 59.3333 53.625 58.6771 53.625 58.0625C53.625 57.4375 53.6198 56.8958 53.6094 56.4375C53.599 55.9688 53.5781 55.6667 53.5469 55.5312C53.4948 55.3646 53.4323 55.1875 53.3594 55C53.2969 54.8333 53.2083 54.6458 53.0938 54.4375C52.9896 54.2188 52.8594 53.9844 52.7031 53.7344ZM60.1562 58.0156L63.0312 58.0469C62.8646 58.6823 62.7396 59.224 62.6562 59.6719C62.5833 60.1198 62.5365 60.4948 62.5156 60.7969C62.474 61.1406 62.4635 61.4323 62.4844 61.6719C62.5156 61.8906 62.5677 62.125 62.6406 62.375C62.7031 62.5833 62.7969 62.8229 62.9219 63.0938C63.0469 63.3646 63.2135 63.6354 63.4219 63.9062C63.2969 63.8646 63.1615 63.8333 63.0156 63.8125C62.8698 63.7917 62.7344 63.776 62.6094 63.7656C62.4635 63.7552 62.3177 63.7552 62.1719 63.7656C62.026 63.776 61.8646 63.7917 61.6875 63.8125C61.5417 63.8333 61.3646 63.8594 61.1562 63.8906C60.9479 63.9219 60.7292 63.9635 60.5 64.0156C60.6562 63.5469 60.776 63.1406 60.8594 62.7969C60.9531 62.4531 61.0208 62.1667 61.0625 61.9375C61.1042 61.6667 61.1302 61.4479 61.1406 61.2812C61.1406 61.0729 61.1406 60.8385 61.1406 60.5781C61.1406 60.3073 61.1406 60.0469 61.1406 59.7969C61.1406 59.5469 61.1354 59.3281 61.125 59.1406C61.1146 58.9427 61.0938 58.8177 61.0625 58.7656L60.9062 58.6094C60.8438 58.5573 60.75 58.4844 60.625 58.3906C60.5104 58.2865 60.3542 58.1615 60.1562 58.0156ZM61.2656 55.6094C61.4844 55.4948 61.7031 55.4635 61.9219 55.5156C62.151 55.5677 62.3281 55.6667 62.4531 55.8125C62.5781 55.9583 62.6198 56.1302 62.5781 56.3281C62.5469 56.526 62.3802 56.7188 62.0781 56.9062C61.776 57.0833 61.5104 57.1458 61.2812 57.0938C61.0521 57.0417 60.8906 56.9323 60.7969 56.7656C60.7031 56.599 60.6875 56.4062 60.75 56.1875C60.8125 55.9583 60.9844 55.7656 61.2656 55.6094ZM68.0469 62.4844C68.3385 62.4844 68.6094 62.4531 68.8594 62.3906C69.0677 62.3385 69.2656 62.2552 69.4531 62.1406C69.651 62.0156 69.7812 61.8333 69.8438 61.5938C70.0521 61.6354 70.2292 61.6719 70.375 61.7031C70.5208 61.724 70.6458 61.7448 70.75 61.7656C70.8646 61.7969 70.9635 61.8177 71.0469 61.8281C71.1302 61.849 71.2292 61.8698 71.3438 61.8906C71.4479 61.9115 71.5729 61.9375 71.7188 61.9688C71.875 61.9896 72.0573 62.0208 72.2656 62.0625C72.1094 62.0417 71.9479 62.0573 71.7812 62.1094C71.625 62.1615 71.474 62.2188 71.3281 62.2812C71.1615 62.3542 71.0052 62.4427 70.8594 62.5469C70.7656 62.6094 70.6562 62.7031 70.5312 62.8281C70.4167 62.9531 70.25 63.0729 70.0312 63.1875C69.8125 63.3021 69.5208 63.401 69.1562 63.4844C68.8021 63.5573 68.3438 63.5833 67.7812 63.5625C67.1042 63.5417 66.5365 63.4219 66.0781 63.2031C65.6198 62.974 65.25 62.6979 64.9688 62.375C64.6875 62.0417 64.4844 61.6823 64.3594 61.2969C64.2344 60.9115 64.1667 60.5521 64.1562 60.2188C64.1458 59.8854 64.2448 59.5365 64.4531 59.1719C64.6615 58.8073 64.9531 58.474 65.3281 58.1719C65.7135 57.8698 66.1771 57.625 66.7188 57.4375C67.2604 57.2396 67.8542 57.1406 68.5 57.1406C68.875 57.1406 69.2188 57.1875 69.5312 57.2812C69.8542 57.3646 70.1458 57.4792 70.4062 57.625C70.6771 57.7708 70.9115 57.9375 71.1094 58.125C71.3073 58.3021 71.474 58.4844 71.6094 58.6719C71.7448 58.8698 71.8594 59.0781 71.9531 59.2969C72.0365 59.4844 72.1042 59.6979 72.1562 59.9375C72.2083 60.1771 72.224 60.4219 72.2031 60.6719C71.4115 60.6927 70.7708 60.7083 70.2812 60.7188C69.8021 60.7292 69.4271 60.7344 69.1562 60.7344H68.4531H67.9219C67.7344 60.7344 67.4896 60.7396 67.1875 60.75C66.8854 60.7604 66.5156 60.776 66.0781 60.7969C66.1302 61.2135 66.2604 61.5365 66.4688 61.7656C66.6875 61.9844 66.9167 62.151 67.1562 62.2656C67.4271 62.3906 67.724 62.4635 68.0469 62.4844ZM66.6406 59.6719C66.974 59.6927 67.25 59.7083 67.4688 59.7188C67.6979 59.7292 67.8854 59.7396 68.0312 59.75C68.1875 59.7604 68.3125 59.7656 68.4062 59.7656H68.7969C69.0573 59.7656 69.5417 59.75 70.25 59.7188C70.2188 59.2604 70.1198 58.9115 69.9531 58.6719C69.7969 58.4323 69.6302 58.2552 69.4531 58.1406C69.2448 58.0156 69.0156 57.9427 68.7656 57.9219C68.0885 57.9323 67.5833 58.0729 67.25 58.3438C66.9271 58.6146 66.724 59.0573 66.6406 59.6719Z" fill="black"/>
</svg>
